<svg xmlns="http://www.w3.org/2000/svg" xmlns:xlink="http://www.w3.org/1999/xlink" viewBox="0 0 766.73 352.61"><defs><style>.cls-1{fill:#fff;fill-opacity:0;}.cls-2{fill:url(#Gradiente_sem_nome_11);}.cls-3{fill:#dc4070;}</style><linearGradient id="Gradiente_sem_nome_11" x1="101.64" y1="345.06" x2="101.64" y2="31.86" gradientTransform="matrix(1, 0, 0, -1, 0, 369.76)" gradientUnits="userSpaceOnUse"><stop offset="0" stop-color="#f29a4c"/><stop offset="1" stop-color="#d94171"/></linearGradient></defs><g id="Camada_2" data-name="Camada 2"><g id="Camada_1-2" data-name="Camada 1"><rect class="cls-1" width="766.73" height="352.61"/><path class="cls-2" d="M131.56,326.68a12.15,12.15,0,0,1-2.32-.22C65,314.21,21.79,278.68,21.79,238.06c0-22.68,13.49-43.48,36-59.61-22.77-16.26-36-37.19-36-59.84,0-49.52,64.54-90.23,146.93-92.66a12.06,12.06,0,0,1,9,3.5,12.19,12.19,0,0,1,3.73,8.83V143a12.37,12.37,0,0,1-11.9,12.32c-36.28,1-68.87,9.51-93.24,22.87,16,8.84,35.5,15.67,57.46,19.58A12.27,12.27,0,0,1,143.9,209.9V314.34a12.35,12.35,0,0,1-12.34,12.34ZM66.48,184.14c-21.72,14.51-34.77,33.36-34.77,53.92,0,35.71,39.94,67.32,99.39,78.65a2.43,2.43,0,0,0,2.88-2.38V209.89a2.39,2.39,0,0,0-1.9-2.37C106.52,203,84.22,194.83,66.48,184.14ZM169.1,35.86H169C92,38.14,31.72,74.48,31.72,118.6c0,20.07,13.13,39.1,35.22,53.85,26.34-15.83,62.25-26,102.38-27.07a2.37,2.37,0,0,0,2.25-2.4V38.27a2.4,2.4,0,0,0-.72-1.71A2.56,2.56,0,0,0,169.1,35.86Z"/><path class="cls-3" d="M565,192.76c0-19.7-17.73-35.73-39.52-35.73a41.37,41.37,0,0,0-29.33,11.81V156.53H486v93.8h10.19V216.67a41.39,41.39,0,0,0,29.33,11.81C547.29,228.49,565,212.46,565,192.76Zm-10.19,0c0,14.08-13.16,25.54-29.33,25.54s-29.33-11.46-29.33-25.54,13.16-25.54,29.33-25.54S554.83,178.68,554.83,192.76Z"/><path class="cls-3" d="M648.92,157v11.89A41.39,41.39,0,0,0,619.59,157c-21.79,0-39.52,16-39.52,35.73s17.73,35.73,39.52,35.73a41.37,41.37,0,0,0,29.33-11.81v11.11h10.19V157ZM619.59,218.3c-16.17,0-29.33-11.46-29.33-25.54s13.16-25.54,29.33-25.54,29.33,11.46,29.33,25.54S635.76,218.3,619.59,218.3Z"/><path class="cls-3" d="M329.27,228c-21.79,0-39.52-16-39.52-35.73s17.73-35.73,39.52-35.73,39.52,16,39.52,35.73S351.07,228,329.27,228Zm0-61.27c-16.17,0-29.33,11.46-29.33,25.54s13.16,25.54,29.33,25.54,29.33-11.46,29.33-25.54S345.45,166.73,329.27,166.73Z"/><path class="cls-3" d="M464.09,189.68c-1.47-18.49-18.58-33.14-39.41-33.14a41.37,41.37,0,0,0-29.33,11.81V156.46H385.16v71.33h10.19V192.27c0-14.08,13.16-25.54,29.33-25.54S454,178.19,454,192.27v35.52H464.2V189.68Z"/><path class="cls-3" d="M254,228.49c-21.79,0-39.52-16-39.52-35.73S232.25,157,254,157a42,42,0,0,1,26,8.85l-6.33,8A31.82,31.82,0,0,0,254,167.23c-16.17,0-29.33,11.46-29.33,25.54s13.16,25.54,29.33,25.54a32.17,32.17,0,0,0,16.72-4.57l5.28,8.72A42.39,42.39,0,0,1,254,228.49Z"/><polygon class="cls-3" points="687.09 250.34 698.44 250.34 744.94 156.46 733.59 156.46 709.69 204.72 688.54 156.46 677.44 156.46 703.8 216.61 687.09 250.34"/></g></g></svg>